<svg xmlns="http://www.w3.org/2000/svg" viewBox="0 0 200.61 90"><defs><style>.cls-1{fill:#01c38e;}</style></defs><g id="Layer_2" data-name="Layer 2"><g id="Layer_2-2" data-name="Layer 2"><path class="cls-1" d="M200.61,34.36V56.57h-1A32.46,32.46,0,0,0,167.18,89v1H145V89a54,54,0,0,1,3.63-19.55l.06-.18A51,51,0,0,1,166.88,44.6a50.83,50.83,0,0,1-21-41.17c0-.79,0-1.59.06-2.37,0,0,0,0,0,0h20.19A33.34,33.34,0,0,0,178,26.52,33.26,33.26,0,0,0,197.7,34.4c.63,0,1.26,0,1.9,0Z"/><path class="cls-1" d="M54.61,2.12c0-.37,0-.74,0-1.11h.06C54.63,1.38,54.63,1.75,54.61,2.12Z"/><path class="cls-1" d="M29.43,45.73a45.33,45.33,0,0,0,12.94-9.06l0,0A54.35,54.35,0,0,0,55.61,2.84c0-.95-.1-1.9-.19-2.84h-22V1a32.36,32.36,0,0,1-1.75,10.51,28,28,0,0,1-20.6,20.3A32,32,0,0,1,1,33.43H0V55.65H1c.42,0,.83,0,1.24,0,.59,0,1.19-.06,1.79-.06A29.28,29.28,0,0,1,32.27,77.1,33.46,33.46,0,0,1,34.44,89H54.49c0-.87.08-1.76.08-2.65v-.1a53.33,53.33,0,0,0-8.48-26.31A45.66,45.66,0,0,0,29.43,45.73ZM54.63,1c0,.37,0,.74,0,1.11,0-.37,0-.74,0-1.11Z"/><path class="cls-1" d="M54.57,86.24a53.33,53.33,0,0,0-8.48-26.31A45.13,45.13,0,0,1,54.57,86.24Z"/><path class="cls-1" d="M87,15.84A10.25,10.25,0,1,1,76.71,5.59,10.25,10.25,0,0,1,87,15.84Z"/><path class="cls-1" d="M87,38.22v40a.33.33,0,0,1-.33.33h0A19.83,19.83,0,0,1,66.81,58.7V37.89H86.63A.33.33,0,0,1,87,38.22Z"/><path class="cls-1" d="M135.16,44.09H120.55v-18h2.27a12.35,12.35,0,0,1,12.34,12.34Z"/><path class="cls-1" d="M137.12,77.36v1.35H121.84a14.9,14.9,0,0,1-2.12.14,16.92,16.92,0,0,1-16.91-16.23c0-.23,0-.47,0-.7v-56h0a17.64,17.64,0,0,1,17.64,17.64V60.67h0A16.69,16.69,0,0,1,137.12,77.36Z"/><path class="cls-1" d="M102.81,62.62h0v-.7C102.79,62.15,102.79,62.39,102.81,62.62Z"/></g></g></svg>