<svg xmlns="http://www.w3.org/2000/svg" viewBox="0 0 438.05 98.36"><defs><style>.cls-1{fill:#01c38e;}</style></defs><g id="Layer_2" data-name="Layer 2"><g id="Layer_2-2" data-name="Layer 2"><path class="cls-1" d="M200.61,34.36V56.57h-1A32.46,32.46,0,0,0,167.18,89v1H145V89a54,54,0,0,1,3.63-19.55l.06-.18A51,51,0,0,1,166.88,44.6a50.83,50.83,0,0,1-21-41.17c0-.79,0-1.59.06-2.37,0,0,0,0,0,0h20.19A33.34,33.34,0,0,0,178,26.52,33.26,33.26,0,0,0,197.7,34.4c.63,0,1.26,0,1.9,0Z"/><path class="cls-1" d="M54.61,2.12c0-.37,0-.74,0-1.11h.06C54.63,1.38,54.63,1.75,54.61,2.12Z"/><path class="cls-1" d="M29.43,45.73a45.33,45.33,0,0,0,12.94-9.06l0,0A54.35,54.35,0,0,0,55.61,2.84c0-.95-.1-1.9-.19-2.84h-22V1a32.36,32.36,0,0,1-1.75,10.51,28,28,0,0,1-20.6,20.3A32,32,0,0,1,1,33.43H0V55.65H1c.42,0,.83,0,1.24,0,.59,0,1.19-.06,1.79-.06A29.28,29.28,0,0,1,32.27,77.1,33.46,33.46,0,0,1,34.44,89H54.49c0-.87.08-1.76.08-2.65v-.1a53.33,53.33,0,0,0-8.48-26.31A45.66,45.66,0,0,0,29.43,45.73ZM54.63,1c0,.37,0,.74,0,1.11,0-.37,0-.74,0-1.11Z"/><path class="cls-1" d="M54.57,86.24a53.33,53.33,0,0,0-8.48-26.31A45.13,45.13,0,0,1,54.57,86.24Z"/><path class="cls-1" d="M87,15.84A10.25,10.25,0,1,1,76.71,5.59,10.25,10.25,0,0,1,87,15.84Z"/><path class="cls-1" d="M87,38.22v40a.33.33,0,0,1-.33.33h0A19.83,19.83,0,0,1,66.81,58.7V37.89H86.63A.33.33,0,0,1,87,38.22Z"/><path class="cls-1" d="M135.16,44.09H120.55v-18h2.27a12.35,12.35,0,0,1,12.34,12.34Z"/><path class="cls-1" d="M137.12,77.36v1.35H121.84a14.9,14.9,0,0,1-2.12.14,16.92,16.92,0,0,1-16.91-16.23c0-.23,0-.47,0-.7v-56h0a17.64,17.64,0,0,1,17.64,17.64V60.67h0A16.69,16.69,0,0,1,137.12,77.36Z"/><path class="cls-1" d="M102.81,62.62h0v-.7C102.79,62.15,102.79,62.39,102.81,62.62Z"/><path class="cls-1" d="M222,55.11V5.54h24a32.57,32.57,0,0,1,13,2.4,20.32,20.32,0,0,1,8.67,6.68,16.67,16.67,0,0,1,3.11,10.1,16.06,16.06,0,0,1-3.47,10.55,13.76,13.76,0,0,1-9,5v.21a14,14,0,0,1,7.39,2.9,16.8,16.8,0,0,1,5,6.38,20.46,20.46,0,0,1,1.79,8.67,19.87,19.87,0,0,1-3.22,11.27,21.33,21.33,0,0,1-9,7.55A31.32,31.32,0,0,1,246.91,80h0A24.89,24.89,0,0,1,222,55.11Zm14.79-19.58h9a9.87,9.87,0,0,0,7-2.4,8.47,8.47,0,0,0,2.55-6.48,8.26,8.26,0,0,0-2.55-6.47,10.15,10.15,0,0,0-7-2.3h0a9,9,0,0,0-9,9Zm0,22.54a9.59,9.59,0,0,0,9.59,9.59h0A11.13,11.13,0,0,0,254.25,65a9.56,9.56,0,0,0,2.86-7.35,9.71,9.71,0,0,0-2.86-7.39,11,11,0,0,0-7.85-2.71h-9.59Z"/><path class="cls-1" d="M311.67,80a21,21,0,0,1-10.4-2.5,17.67,17.67,0,0,1-7-7,21.09,21.09,0,0,1-2.5-10.4V19.31H287.7A13.77,13.77,0,0,1,273.93,5.54h33.15V59.6a6.77,6.77,0,0,0,1.69,4.79,5.71,5.71,0,0,0,4.43,1.84h2A13.77,13.77,0,0,1,329,80H311.67Z"/><path class="cls-1" d="M358.08,81a28.19,28.19,0,0,1-12.95-2.81,20.43,20.43,0,0,1-8.52-7.85,22.61,22.61,0,0,1-3-11.78V45.32a22.61,22.61,0,0,1,3-11.78,20.49,20.49,0,0,1,8.52-7.85,31.38,31.38,0,0,1,26,0,20.46,20.46,0,0,1,8.46,7.85,22.51,22.51,0,0,1,3,11.78V58.58a22.51,22.51,0,0,1-3,11.78,20.39,20.39,0,0,1-8.46,7.85A28.13,28.13,0,0,1,358.08,81Zm0-13.26c3,0,5.27-.8,6.84-2.4a9.29,9.29,0,0,0,2.34-6.78V45.32q0-4.49-2.34-6.83c-1.57-1.57-3.84-2.35-6.84-2.35a9.27,9.27,0,0,0-6.78,2.35q-2.4,2.34-2.4,6.83V58.58a8.35,8.35,0,0,0,9.18,9.18Z"/><path class="cls-1" d="M398.37,98.36h0a12.24,12.24,0,0,1,12.24-12.24h3.57q4.29,0,6.58-2.14a7.71,7.71,0,0,0,2.3-5.92V75.92l.1-8.36a15.81,15.81,0,0,1-5.82,6.93,16.11,16.11,0,0,1-9,2.45q-8.47,0-13.57-5.92t-5.1-16V44.81q0-10,5.1-16a17,17,0,0,1,13.57-6,15.44,15.44,0,0,1,14.89,9.49V23.9h0a14.79,14.79,0,0,1,14.79,14.79V78.57q0,9.18-6.27,14.49t-17.09,5.3Zm15.51-34.68a8.7,8.7,0,0,0,6.52-2.4,9.25,9.25,0,0,0,2.35-6.78V45.32a9.27,9.27,0,0,0-2.35-6.78,10.14,10.14,0,0,0-13.1,0,9.42,9.42,0,0,0-2.3,6.78V54.5a9.4,9.4,0,0,0,2.3,6.78A8.67,8.67,0,0,0,413.88,63.68Z"/></g></g></svg>